<svg width="30" height="30" viewBox="0 0 30 30" fill="none" xmlns="http://www.w3.org/2000/svg">
<g id="Group 4701">
<path id="FontAwsome (angle-left)" d="M19.3901 14.673L12.9901 8.27302C12.8857 8.16798 12.7615 8.08463 12.6247 8.02775C12.4879 7.97087 12.3412 7.94159 12.1931 7.94159C12.045 7.94159 11.8983 7.97087 11.7615 8.02775C11.6248 8.08463 11.5006 8.16798 11.3961 8.27302L10.3331 9.33602C10.2281 9.44047 10.1447 9.56466 10.0878 9.70144C10.031 9.83822 10.0017 9.98489 10.0017 10.133C10.0017 10.2812 10.031 10.4278 10.0878 10.5646C10.1447 10.7014 10.2281 10.8256 10.3331 10.93L14.8651 15.472L10.3311 20.006C10.2261 20.1105 10.1427 20.2347 10.0858 20.3714C10.029 20.5082 9.99969 20.6549 9.99969 20.803C9.99969 20.9512 10.029 21.0978 10.0858 21.2346C10.1427 21.3714 10.2261 21.4956 10.3311 21.6L11.3941 22.668C11.4986 22.7731 11.6228 22.8564 11.7595 22.9133C11.8963 22.9702 12.043 22.9995 12.1911 22.9995C12.3392 22.9995 12.4859 22.9702 12.6227 22.9133C12.7595 22.8564 12.8837 22.7731 12.9881 22.668L19.3881 16.268C19.4932 16.1635 19.5766 16.0394 19.6336 15.9026C19.6906 15.7658 19.72 15.6191 19.7202 15.4709C19.7204 15.3228 19.6913 15.176 19.6347 15.0391C19.578 14.9022 19.4949 14.7778 19.3901 14.673Z" fill="#4D63FF"/>
</g>
</svg>
